<mxfile host="Electron" modified="2024-10-18T02:46:12.669Z" agent="Mozilla/5.0 (Macintosh; Intel Mac OS X 10_15_7) AppleWebKit/537.36 (KHTML, like Gecko) draw.io/24.6.1 Chrome/124.0.6367.207 Electron/30.0.6 Safari/537.36" etag="a8SJpXal55CqjSgkeYjD" version="24.6.1" type="device">
  <diagram name="第 1 页" id="rAhLf1J9xHNpHruiE8G0">
    <mxGraphModel dx="1434" dy="769" grid="1" gridSize="10" guides="1" tooltips="1" connect="1" arrows="1" fold="1" page="1" pageScale="1" pageWidth="827" pageHeight="1169" math="0" shadow="0">
      <root>
        <mxCell id="0" />
        <mxCell id="1" parent="0" />
        <mxCell id="ApBEkjN8yYshjVTdfdUb-1" value="&lt;font style=&quot;font-size: 18px;&quot;&gt;prometheus&lt;/font&gt;" style="rounded=0;whiteSpace=wrap;html=1;fillColor=#ffe6cc;strokeColor=#d79b00;" vertex="1" parent="1">
          <mxGeometry x="389" y="280" width="120" height="60" as="geometry" />
        </mxCell>
        <mxCell id="ApBEkjN8yYshjVTdfdUb-2" value="" style="shape=cylinder3;whiteSpace=wrap;html=1;boundedLbl=1;backgroundOutline=1;size=15;fillColor=#dae8fc;strokeColor=#6c8ebf;" vertex="1" parent="1">
          <mxGeometry x="314" y="620" width="90" height="60" as="geometry" />
        </mxCell>
        <mxCell id="ApBEkjN8yYshjVTdfdUb-3" value="&lt;font style=&quot;font-size: 16px;&quot;&gt;Redis&lt;/font&gt;" style="text;html=1;align=center;verticalAlign=middle;whiteSpace=wrap;rounded=0;" vertex="1" parent="1">
          <mxGeometry x="329" y="641" width="60" height="30" as="geometry" />
        </mxCell>
        <mxCell id="ApBEkjN8yYshjVTdfdUb-4" value="redis exporter" style="rounded=1;whiteSpace=wrap;html=1;fillColor=#f8cecc;strokeColor=#b85450;" vertex="1" parent="1">
          <mxGeometry x="299" y="460" width="120" height="60" as="geometry" />
        </mxCell>
        <mxCell id="ApBEkjN8yYshjVTdfdUb-6" style="edgeStyle=orthogonalEdgeStyle;rounded=0;orthogonalLoop=1;jettySize=auto;html=1;exitX=0.5;exitY=1;exitDx=0;exitDy=0;entryX=0.5;entryY=0;entryDx=0;entryDy=0;entryPerimeter=0;startArrow=classicThin;startFill=1;" edge="1" parent="1" source="ApBEkjN8yYshjVTdfdUb-4" target="ApBEkjN8yYshjVTdfdUb-2">
          <mxGeometry relative="1" as="geometry" />
        </mxCell>
        <mxCell id="ApBEkjN8yYshjVTdfdUb-9" value="" style="endArrow=classic;html=1;rounded=0;entryX=0.5;entryY=0;entryDx=0;entryDy=0;" edge="1" parent="1" source="ApBEkjN8yYshjVTdfdUb-1" target="ApBEkjN8yYshjVTdfdUb-4">
          <mxGeometry width="50" height="50" relative="1" as="geometry">
            <mxPoint x="390" y="420" as="sourcePoint" />
            <mxPoint x="440" y="370" as="targetPoint" />
          </mxGeometry>
        </mxCell>
        <mxCell id="ApBEkjN8yYshjVTdfdUb-11" value="" style="image;html=1;image=img/lib/clip_art/computers/Database_128x128.png" vertex="1" parent="1">
          <mxGeometry x="509" y="620" width="110" height="80" as="geometry" />
        </mxCell>
        <mxCell id="ApBEkjN8yYshjVTdfdUb-12" value="&lt;font style=&quot;font-size: 16px;&quot;&gt;mysql&lt;/font&gt;" style="text;html=1;align=center;verticalAlign=middle;whiteSpace=wrap;rounded=0;" vertex="1" parent="1">
          <mxGeometry x="599" y="645" width="60" height="30" as="geometry" />
        </mxCell>
        <mxCell id="ApBEkjN8yYshjVTdfdUb-13" value="mysql server exporter" style="rounded=1;whiteSpace=wrap;html=1;fillColor=#f8cecc;strokeColor=#b85450;" vertex="1" parent="1">
          <mxGeometry x="505" y="460" width="120" height="60" as="geometry" />
        </mxCell>
        <mxCell id="ApBEkjN8yYshjVTdfdUb-15" value="" style="endArrow=classic;html=1;rounded=0;entryX=0.5;entryY=0;entryDx=0;entryDy=0;exitX=0.75;exitY=1;exitDx=0;exitDy=0;" edge="1" parent="1" source="ApBEkjN8yYshjVTdfdUb-1" target="ApBEkjN8yYshjVTdfdUb-13">
          <mxGeometry width="50" height="50" relative="1" as="geometry">
            <mxPoint x="439" y="270" as="sourcePoint" />
            <mxPoint x="369" y="470" as="targetPoint" />
          </mxGeometry>
        </mxCell>
        <mxCell id="ApBEkjN8yYshjVTdfdUb-17" value="" style="endArrow=classic;startArrow=classic;html=1;rounded=0;exitX=0.5;exitY=1;exitDx=0;exitDy=0;entryX=0.5;entryY=0;entryDx=0;entryDy=0;" edge="1" parent="1" source="ApBEkjN8yYshjVTdfdUb-13" target="ApBEkjN8yYshjVTdfdUb-11">
          <mxGeometry width="50" height="50" relative="1" as="geometry">
            <mxPoint x="390" y="420" as="sourcePoint" />
            <mxPoint x="560" y="580" as="targetPoint" />
          </mxGeometry>
        </mxCell>
        <mxCell id="ApBEkjN8yYshjVTdfdUb-19" value="" style="image;html=1;image=img/lib/clip_art/computers/Server_Rack_128x128.png" vertex="1" parent="1">
          <mxGeometry x="80" y="520" width="150" height="120" as="geometry" />
        </mxCell>
        <mxCell id="ApBEkjN8yYshjVTdfdUb-20" value="&lt;font style=&quot;font-size: 18px;&quot;&gt;server&amp;nbsp; node&lt;/font&gt;" style="text;html=1;align=center;verticalAlign=middle;whiteSpace=wrap;rounded=0;" vertex="1" parent="1">
          <mxGeometry x="100" y="640" width="110" height="50" as="geometry" />
        </mxCell>
        <mxCell id="ApBEkjN8yYshjVTdfdUb-23" style="edgeStyle=orthogonalEdgeStyle;rounded=0;orthogonalLoop=1;jettySize=auto;html=1;exitX=0.5;exitY=1;exitDx=0;exitDy=0;entryX=0.5;entryY=0;entryDx=0;entryDy=0;startArrow=block;startFill=1;" edge="1" parent="1" source="ApBEkjN8yYshjVTdfdUb-21" target="ApBEkjN8yYshjVTdfdUb-19">
          <mxGeometry relative="1" as="geometry" />
        </mxCell>
        <mxCell id="ApBEkjN8yYshjVTdfdUb-21" value="node exporter" style="rounded=1;whiteSpace=wrap;html=1;fillColor=#f8cecc;strokeColor=#b85450;" vertex="1" parent="1">
          <mxGeometry x="95" y="410" width="120" height="60" as="geometry" />
        </mxCell>
        <mxCell id="ApBEkjN8yYshjVTdfdUb-22" value="" style="endArrow=classic;html=1;rounded=0;entryX=0.5;entryY=0;entryDx=0;entryDy=0;exitX=-0.008;exitY=0.633;exitDx=0;exitDy=0;exitPerimeter=0;" edge="1" parent="1" source="ApBEkjN8yYshjVTdfdUb-1" target="ApBEkjN8yYshjVTdfdUb-21">
          <mxGeometry width="50" height="50" relative="1" as="geometry">
            <mxPoint x="441" y="350" as="sourcePoint" />
            <mxPoint x="369" y="470" as="targetPoint" />
          </mxGeometry>
        </mxCell>
        <mxCell id="ApBEkjN8yYshjVTdfdUb-24" value="内部协议或命令" style="text;html=1;align=center;verticalAlign=middle;whiteSpace=wrap;rounded=0;" vertex="1" parent="1">
          <mxGeometry x="370" y="550" width="90" height="30" as="geometry" />
        </mxCell>
        <mxCell id="ApBEkjN8yYshjVTdfdUb-25" value="内部协议或命令" style="text;html=1;align=center;verticalAlign=middle;whiteSpace=wrap;rounded=0;" vertex="1" parent="1">
          <mxGeometry x="550" y="554.5" width="90" height="30" as="geometry" />
        </mxCell>
        <mxCell id="ApBEkjN8yYshjVTdfdUb-26" value="内部协议或命令" style="text;html=1;align=center;verticalAlign=middle;whiteSpace=wrap;rounded=0;" vertex="1" parent="1">
          <mxGeometry x="50" y="490" width="90" height="30" as="geometry" />
        </mxCell>
        <mxCell id="ApBEkjN8yYshjVTdfdUb-27" value="Pull&amp;nbsp; metrics" style="text;html=1;align=center;verticalAlign=middle;whiteSpace=wrap;rounded=0;" vertex="1" parent="1">
          <mxGeometry x="194" y="330" width="120" height="30" as="geometry" />
        </mxCell>
        <mxCell id="ApBEkjN8yYshjVTdfdUb-28" value="Pull&amp;nbsp; metrics" style="text;html=1;align=center;verticalAlign=middle;whiteSpace=wrap;rounded=0;" vertex="1" parent="1">
          <mxGeometry x="284" y="390" width="120" height="30" as="geometry" />
        </mxCell>
        <mxCell id="ApBEkjN8yYshjVTdfdUb-30" value="Pull&amp;nbsp; metrics" style="text;html=1;align=center;verticalAlign=middle;whiteSpace=wrap;rounded=0;" vertex="1" parent="1">
          <mxGeometry x="530" y="380" width="120" height="30" as="geometry" />
        </mxCell>
      </root>
    </mxGraphModel>
  </diagram>
</mxfile>
